# xmcd
#
# Track frame offsets: 
#        150
#        12430
#        23177
#        36474
#        48033
#        59953
#        73087
#        84014
#        99475
#        111006
#        129617
#        139691
#
# Disc length: 1968 seconds
#
# Revision: 0
# Processed by: cddbd v1.5.2PL0 Copyright (c) Steve Scherf et al.
# Submitted via: ExactAudioCopy v1.0b1
#
DISCID=a307ae0c
DTITLE=The Country Gentlemen - New Look, New Sound
DYEAR=1969
DGENRE=Bluegrass
TTITLE0=The Sentence
TTITLE1=Where I'm Bound
TTITLE2=To The Rescue
TTITLE3=Rodger Young
TTITLE4=Green Green Grass Of Home
TTITLE5=Along The Way
TTITLE6=Let's
TTITLE7=Rambling Boy
TTITLE8=Gentlemen's Concerto
TTITLE9=Take Me To The Valley
TTITLE10=Fare-Thee-Well Cisco
TTITLE11=Preaching, Praying, Singing
EXTD=
EXTT0=
EXTT1=
EXTT2=
EXTT3=
EXTT4=
EXTT5=
EXTT6=
EXTT7=
EXTT8=
EXTT9=
EXTT10=
EXTT11=
PLAYORDER=
